PathFileType	3	(X/Y/Z)	D:\minhoCalibration\240510\subject5_KPNP\preferred\preferred03.trc
DataRate	CameraRate	NumFrames	NumMarkers	Units	OrigDataRate	OrigDataStartFrame	OrigNumFrames
200.0	200.0	21	10	mm	200.0	298	191	
Frame#	Time	Left_Ankle_Outer1			Left_Ankle_Inner1			Left_Knee_Outer1			Left_Knee_Inner1			Left_Wrist1			Right_Wrist1			Right_Knee_Inner1			Right_Knee_Outer1			Right_Ankle_Inner1			Right_Ankle_Outer1			
		X1	Y1	Z1	X2	Y2	Z2	X3	Y3	Z3	X4	Y4	Z4	X5	Y5	Z5	X6	Y6	Z6	X7	Y7	Z7	X8	Y8	Z8	X9	Y9	Z9	X10	Y10	Z10	
298	1.48	-558.61987	85.079422	-625.55493	-589.16504	102.11885	-584.60455	-370.10995	527.21033	-603.51727	-419.39288	517.88892	-523.09796	-436.38522	991.60797	-766.37866	-607.64307	1153.4609	-526.7431	-558.22412	834.82996	-92.978783	-604.70654	919.9278	-91.047844	-855.30768	629.04407	-388.26312	-888.93146	721.20703	-389.31284
299	1.485	-560.28625	85.887924	-623.52368	-589.52454	103.22361	-581.57129	-369.45026	527.15881	-605.41779	-415.85962	517.82141	-523.32782	-441.38742	989.83484	-767.55762	-599.70941	1156.6316	-524.19537	-544.41565	844.15771	-86.673988	-588.02856	930.76764	-84.751602	-860.2417	644.85486	-368.4989	-890.30493	738.30829	-368.47781
300	1.49	-561.88025	86.484665	-621.35669	-589.77368	104.19331	-579.27496	-369.08997	527.26904	-607.18964	-412.46936	517.83807	-523.70813	-446.47256	988.00073	-768.37885	-592.43378	1159.9021	-521.16504	-530.77911	852.90356	-81.080147	-571.19702	940.98816	-79.340248	-864.06848	661.11121	-346.51926	-891.20172	755.24164	-346.91946
301	1.495	-563.41022	86.967918	-619.29224	-590.43207	104.38654	-577.07611	-368.90973	527.35181	-608.91052	-409.34293	517.86237	-524.03656	-450.29321	986.78589	-769.7644	-585.78833	1163.5945	-517.41156	-517.08936	861.41779	-76.271576	-554.34247	950.62653	-74.804214	-868.08087	677.59167	-324.23923	-892.0354	772.76562	-324.84003
302	1.5	-564.89825	87.631111	-617.2962	-591.55414	105.73011	-573.08313	-369.21515	527.284	-610.28168	-406.52853	517.87854	-524.34436	-457.19757	984.62457	-768.51794	-578.59454	1166.5001	-515.27167	-503.64365	869.25891	-71.952927	-537.49158	959.64594	-71.15332	-871.57538	694.4599	-301.19888	-892.41473	790.16437	-302.07614
303	1.505	-566.49567	88.033958	-615.2428	-592.35272	106.07645	-570.79974	-369.61487	527.54761	-611.75159	-404.05496	517.85217	-524.6192	-463.49301	982.31049	-767.20642	-571.90906	1169.3605	-513.02191	-490.46994	876.58557	-68.306137	-520.84174	968.19843	-68.242821	-874.21448	711.79419	-277.76047	-892.07294	807.66022	-278.77695
304	1.51	-567.98389	88.341782	-613.24542	-593.172	106.71026	-568.21399	-370.36203	527.5658	-612.89575	-402.08344	517.99359	-524.25134	-468.26489	980.55353	-767.11829	-564.91382	1171.3049	-512.21698	-477.40701	883.64221	-65.702957	-504.35358	976.01678	-66.009628	-876.41254	728.55609	-252.93719	-891.22449	825.09637	-254.86034
305	1.515	-569.52808	88.559761	-611.45935	-593.85516	106.82693	-566.07434	-371.35126	527.57526	-613.81305	-400.60001	517.80829	-524.21606	-473.38412	979.38239	-765.90295	-558.85901	1174.019	-510.10846	-464.91135	890.00848	-63.100456	-488.14514	983.20081	-64.582069	-877.5506	744.81708	-226.81613	-889.49921	842.51172	-230.25659
306	1.52	-571.10187	88.723991	-609.62885	-594.49579	106.66928	-564.52417	-372.41681	527.55878	-614.40253	-399.67383	517.56641	-524.04706	-476.89331	978.22827	-766.24481	-552.8515	1176.2205	-508.70914	-452.92184	895.74829	-60.856102	-472.43771	989.85767	-63.746021	-877.6629	761.35309	-199.91924	-886.93292	859.6825	-204.99007
307	1.525	-572.70721	88.889435	-608.19763	-595.35883	106.95139	-562.3634	-373.56693	527.44275	-614.72821	-399.1731	517.33264	-523.72668	-482.39252	976.27551	-764.57941	-547.09875	1178.0472	-507.52545	-441.29962	901.28943	-59.220108	-457.22766	995.96216	-63.539425	-877.18903	778.755	-170.9369	-883.39551	876.7973	-178.99493
308	1.53	-573.98303	88.737122	-606.61365	-596.66913	106.85065	-560.1084	-374.89319	527.23029	-614.75299	-398.90576	516.97736	-523.28925	-486.26871	974.55719	-764.27991	-541.51123	1179.6014	-506.53345	-430.31006	906.61627	-58.070381	-442.71234	1001.5707	-63.802704	-875.51379	795.45184	-141.12544	-878.91986	893.73712	-152.49661
309	1.535	-575.24774	88.589127	-605.4259	-597.10651	106.92151	-558.14966	-376.20523	526.92511	-614.66583	-399.05664	516.29004	-523.40857	-490.52206	973.40857	-762.77173	-536.41272	1181.072	-505.45483	-420.0076	911.68829	-57.061302	-429.05255	1006.7654	-64.587502	-872.87183	811.41852	-107.96281	-873.17755	910.55481	-124.85467
310	1.54	-576.2392	88.21698	-604.14703	-597.83972	106.0321	-557.89722	-377.46622	526.72394	-614.4317	-399.39041	516.17242	-522.84534	-493.91196	972.34729	-762.39648	-531.23254	1182.3181	-504.69708	-410.15021	916.53723	-56.584038	-416.51224	1011.6197	-65.64006	-868.50232	828.88281	-78.006546	-866.5296	926.72534	-96.770195
311	1.545	-577.28467	87.716606	-603.38751	-598.62854	105.54765	-556.67572	-378.87637	526.37329	-613.97601	-400.00467	515.71661	-522.20251	-498.99896	970.86279	-759.70416	-526.45868	1183.3198	-503.89474	-401.28729	921.27948	-56.092682	-404.61127	1016.1728	-67.020538	-862.93317	844.12024	-51.271809	-858.87598	942.98157	-68.295158
312	1.55	-578.06659	87.183678	-602.75555	-599.45966	105.04606	-555.52002	-380.24323	525.99634	-613.50238	-400.76132	515.2699	-521.5401	-501.32971	969.51672	-760.08612	-521.85156	1183.9667	-503.17984	-393.22787	925.9917	-55.799698	-394.03189	1020.6169	-68.553894	-851.29156	862.7962	-14.431607	-849.92529	958.7027	-38.751106
313	1.555	-578.48322	85.721794	-601.33514	-599.96704	104.41113	-554.79846	-381.56522	525.7005	-612.78192	-402.01816	514.65173	-520.69501	-505.3233	968.31348	-757.95703	-517.25439	1184.5591	-502.69492	-386.0531	930.73901	-55.4701	-384.64862	1024.9397	-70.174721	-843.64032	877.7049	18.083548	-839.72485	974.2348	-8.2998476
314	1.56	-578.97711	85.059502	-601.06494	-600.38062	103.61578	-554.31952	-382.82751	525.36224	-612.12842	-403.11908	514.13013	-519.92719	-508.39728	967.24042	-756.92401	-513.13989	1184.8831	-502.09641	-379.82751	935.43915	-55.261894	-376.63232	1029.2142	-71.835197	-829.35889	894.79883	52.028797	-828.16309	989.53503	22.7094
315	1.565	-579.64954	84.869995	-601.49341	-601.15912	102.73031	-554.11633	-383.97015	525.0542	-611.35547	-404.35947	513.68451	-519.17682	-514.12561	965.83557	-753.65826	-509.2883	1185.2185	-501.55984	-374.49771	940.26031	-55.186607	-369.9798	1033.3754	-73.453712	-817.18939	908.90784	87.361282	-814.95624	1004.5273	54.702866
316	1.57	-580.05927	84.303619	-601.34729	-601.57794	101.89872	-553.92786	-385.05386	524.70874	-610.59186	-405.52673	513.47162	-517.89954	-513.86975	965.04297	-754.43982	-505.65237	1185.6842	-500.82468	-370.16095	945.08728	-55.076485	-364.87671	1037.5291	-74.943268	-801.18201	925.89612	121.99674	-799.82794	1019.0339	87.344482
317	1.575	-580.51001	83.635307	-601.10156	-602.35199	101.15462	-553.7334	-385.5463	524.52722	-610.27905	-406.76163	513.00977	-517.15192	-517.08716	964.28644	-752.14258	-502.27582	1185.635	-500.76746	-366.98087	949.88989	-55.166519	-361.30737	1041.5887	-76.240761	-783.48187	940.46649	158.06979	-782.75958	1033.3201	120.59156
318	1.58	-581.07214	83.13205	-600.80518	-602.71143	100.79469	-553.18915	-386.82648	524.02551	-609.09064	-407.96844	512.50909	-516.39496	-519.15112	963.48602	-750.70227	-499.22073	1185.9774	-500.31351	-365.0036	954.50726	-55.314762	-359.18161	1045.5374	-77.329819	-762.30792	954.97858	192.32516	-763.41858	1047.0861	154.06651
